# xmcd
#
# Track frame offsets: 
#        150
#        18155
#        37977
#        56307
#        79747
#        96445
#        117245
#        139200
#        155732
#        185080
#        203210
#        236377
#        253602
#        273087
#
# Disc length: 3836 seconds
#
# Revision: 0
# Processed by: cddbd v1.4PL0 Copyright (c) Steve Scherf et al.
# Submitted via: ExactAudioCopy v0.90b3
#
DISCID=b90efa0e
DTITLE=Sista Monica - Sista Monica
DYEAR=1997
DGENRE=Blues
TTITLE0=What difference does it make
TTITLE1=The Sista don't play
TTITLE2=I'm falling anyway
TTITLE3=How long does it take
TTITLE4=Festival time boogie
TTITLE5=Stop talking bout me stalking you
TTITLE6=Never say never
TTITLE7=I been bamboozled
TTITLE8=I dont want to hurt you baby
TTITLE9=Don't come around
TTITLE10=Where is my Teddy(dance jam)
TTITLE11=Where is my Teddy(radio edit)
TTITLE12=I'm unhappy you're unhappy with me
TTITLE13=Amazing grace Motherless child
EXTD=
EXTT0=
EXTT1=
EXTT2=
EXTT3=
EXTT4=
EXTT5=
EXTT6=
EXTT7=
EXTT8=
EXTT9=
EXTT10=
EXTT11=
EXTT12=
EXTT13=
PLAYORDER=
